<?xml version="1.0" encoding="UTF-8" standalone="no"?>
<!-- Uploaded to: SVG Repo, www.svgrepo.com, Generator: SVG Repo Mixer Tools -->

<svg
   transform="translate(0, -50) scale(1.2, 1.2) translate(0, 50)"
   height="300px"
   width="300px"
   version="1.1"
   id="Layer_1"
   viewBox="0 0 512 512"
   xml:space="preserve"
   sodipodi:docname="waterContainer7.svg"
   inkscape:version="1.2.2 (732a01da63, 2022-12-09)"
   xmlns:inkscape="http://www.inkscape.org/namespaces/inkscape"
   xmlns:sodipodi="http://sodipodi.sourceforge.net/DTD/sodipodi-0.dtd"
   xmlns="http://www.w3.org/2000/svg"
   xmlns:svg="http://www.w3.org/2000/svg"><defs
   id="defs42" /><sodipodi:namedview
   id="namedview40"
   pagecolor="#ffffff"
   bordercolor="#999999"
   borderopacity="1"
   inkscape:showpageshadow="0"
   inkscape:pageopacity="0"
   inkscape:pagecheckerboard="0"
   inkscape:deskcolor="#d1d1d1"
   showgrid="false"
   inkscape:zoom="2.9309576"
   inkscape:cx="179.12235"
   inkscape:cy="99.967328"
   inkscape:window-width="1920"
   inkscape:window-height="1009"
   inkscape:window-x="-8"
   inkscape:window-y="-8"
   inkscape:window-maximized="1"
   inkscape:current-layer="Layer_1" />
<rect
   style="fill:#e2f5fe;fill-opacity:1;stroke:none;stroke-width:2.10877"
   id="rect20220"
   width="292.01828"
   height="265.83231"
   x="109.9072"
   y="80.792702"
   ry="1.3072692" /><path
   style="fill:#aca793;stroke-width:1.02198"
   d="M 340.457,376.34638 C 339.706,376.39966 256,352.6583 256,352.6583 c 0,0 -83.706,23.74136 -84.457,23.68704 -34.372,2.42416 -61.531,32.32357 -61.531,68.82912 h 291.977 c -10e-4,-36.50555 -27.16,-66.40391 -61.532,-68.82808 z"
   id="path23" />

<path
   style="fill:#e2f5fe;stroke-width:1.04071;fill-opacity:1"
   d="M 401.988,81.100669 H 110.012 c 0,-39.519883 29.571,-71.5480123 66.059,-71.5480123 h 159.858 c 36.488,0 66.059,32.0281293 66.059,71.5480123 z"
   id="path27" /><path
   style="fill:#E2F5FE;stroke-width:0.68813"
   d="m 365.98742,79.020746 c -15.189,0 -28.604,-3.50744 -36.978,-8.88436 -8.363,5.37692 -21.811,8.88436 -36.989,8.88436 -15.17799,0 -28.60399,-3.50744 -36.96599,-8.88436 -8.385,5.37692 -21.811,8.88436 -36.989,8.88436 -15.178,0 -28.60401,-3.50744 -36.978,-8.88436 -8.363,5.37692 -21.81101,8.88436 -36.989,8.88436 -14.06301,0 -26.61301,-3.00644 -35.04401,-7.72612 v 78.876344 c 0,16.5565 27.15901,30.10655 61.531,31.20561 1.50201,0.0483 167.41301,0.0483 168.915,0 34.372,-1.09906 61.531,-14.64911 61.531,-31.20561 V 71.299846 c -8.42,4.71446 -20.993,7.7209 -35.044,7.7209 z"
   id="level4" />

<path
   style="fill:#E2F5FE;stroke-width:0.68813"
   d="m 366.56972,134.92057 c -15.189,0 -28.604,-3.50744 -36.978,-8.88436 -8.363,5.37692 -21.811,8.88436 -36.989,8.88436 -15.178,0 -28.604,-3.50744 -36.966,-8.88436 -8.385,5.37692 -21.811,8.88436 -36.989,8.88436 -15.178,0 -28.604,-3.50744 -36.978,-8.88436 -8.363,5.37692 -21.811,8.88436 -36.989,8.88436 -14.06301,0 -26.61301,-3.00644 -35.04401,-7.72612 v 78.87634 c 0,16.5565 27.15901,30.10655 61.53101,31.20561 1.502,0.0483 167.413,0.0483 168.915,0 34.372,-1.09906 61.531,-14.64911 61.531,-31.20561 v -78.87112 c -8.42,4.71446 -20.993,7.7209 -35.044,7.7209 z"
   id="level3" /><path
   style="fill:#E2F5FE;stroke-width:0.68813"
   d="m 366.77558,217.12333 c -15.189,0 -28.604,-3.50744 -36.978,-8.88436 -8.363,5.37692 -21.811,8.88436 -36.989,8.88436 -15.178,0 -28.604,-3.50744 -36.966,-8.88436 -8.385,5.37692 -21.811,8.88436 -36.989,8.88436 -15.178,0 -28.604,-3.50744 -36.978,-8.88436 -8.363,5.37692 -21.811,8.88436 -36.989,8.88436 -14.063,0 -26.613,-3.00644 -35.044,-7.72612 v 78.87634 c 0,16.5565 27.159,30.10655 61.531,31.20561 1.502,0.0483 167.413,0.0483 168.915,0 34.372,-1.09906 61.531,-14.64911 61.531,-31.20561 v -78.87112 c -8.42,4.71446 -20.993,7.7209 -35.044,7.7209 z"
   id="level2" /><path
   style="fill:#E2F5FE;stroke-width:0.68813"
   d="m 366.945,280.69811 c -15.189,0 -28.604,-3.50744 -36.978,-8.88436 -8.363,5.37692 -21.811,8.88436 -36.989,8.88436 -15.178,0 -28.604,-3.50744 -36.966,-8.88436 -8.385,5.37692 -21.811,8.88436 -36.989,8.88436 -15.178,0 -28.604,-3.50744 -36.978,-8.88436 -8.363,5.37692 -21.811,8.88436 -36.989,8.88436 -14.063,0 -26.613,-3.00644 -35.044,-7.72612 v 78.87634 c 0,16.5565 27.159,30.10655 61.531,31.20561 1.502,0.0483 167.413,0.0483 168.915,0 34.372,-1.09906 61.531,-14.64911 61.531,-31.20561 v -78.87112 c -8.42,4.71446 -20.993,7.7209 -35.044,7.7209 z"
   id="level1" /><g
   id="g35"
   transform="matrix(1,0,0,1.044448,0,16.216537)">
	<path
   style="fill:#1895c2"
   d="M 402.845,287.441 H 110.257 c -4.713,0 -8.533,-3.821 -8.533,-8.533 0,-4.712 3.821,-8.533 8.533,-8.533 h 292.588 c 4.713,0 8.533,3.821 8.533,8.533 0,4.712 -3.82,8.533 -8.533,8.533 z"
   id="path31" />
	<path
   style="fill:#1895c2"
   d="M 402.845,181.016 H 110.257 c -4.713,0 -8.533,-3.821 -8.533,-8.533 0,-4.712 3.821,-8.533 8.533,-8.533 h 292.588 c 4.713,0 8.533,3.821 8.533,8.533 0,4.712 -3.82,8.533 -8.533,8.533 z"
   id="path33" />
</g>

</svg>
